<?xml version="1.0" encoding="UTF-8" standalone="no"?>
<svg
   version="1.1"
   id="Layer_1"
   x="0px"
   y="0px"
   width="100%"
   viewBox="0 0 512 512"
   enable-background="new 0 0 512 512"
   xml:space="preserve"
   sodipodi:docname="house.svg"
   inkscape:version="1.3.2 (091e20e, 2023-11-25, custom)"
   xmlns:inkscape="http://www.inkscape.org/namespaces/inkscape"
   xmlns:sodipodi="http://sodipodi.sourceforge.net/DTD/sodipodi-0.dtd"
   xmlns="http://www.w3.org/2000/svg"
   xmlns:svg="http://www.w3.org/2000/svg"
   xmlns:inkstitch="http://inkstitch.org/namespace"><sodipodi:namedview
   id="namedview20"
   pagecolor="#ffffff"
   bordercolor="#999999"
   borderopacity="1"
   inkscape:showpageshadow="2"
   inkscape:pageopacity="0"
   inkscape:pagecheckerboard="0"
   inkscape:deskcolor="#d1d1d1"
   inkscape:zoom="2.3847656"
   inkscape:cx="256"
   inkscape:cy="256"
   inkscape:window-width="3440"
   inkscape:window-height="1417"
   inkscape:window-x="-8"
   inkscape:window-y="1432"
   inkscape:window-maximized="1"
   inkscape:current-layer="Layer_1" /><metadata
   id="metadata20"><inkstitch:min_stitch_len_mm>0</inkstitch:min_stitch_len_mm><inkstitch:collapse_len_mm>3</inkstitch:collapse_len_mm><inkstitch:inkstitch_svg_version>1</inkstitch:inkstitch_svg_version></metadata><defs
   id="defs20" />
<path
   fill="#012B28"
   opacity="1.000000"
   stroke="none"
   d=" M464.000000,513.000000   C326.312439,513.000000 188.624878,513.000000 50.349262,512.687195   C49.204216,511.764923 48.747868,510.997009 48.075150,510.569733   C37.857662,504.079987 34.813965,494.687073 34.848217,482.847900   C35.120617,388.699524 35.000336,294.550049 34.997711,200.400925   C34.997650,198.234879 34.955017,196.068848 34.948929,193.902771   C34.940620,190.947205 33.685230,189.163498 30.535126,189.039795   C22.698187,188.732040 17.600723,184.545853 14.267393,177.697861   C12.739597,174.559189 11.063722,171.465393 9.159697,168.543686   C6.588800,164.598679 3.733351,160.839127 1.000003,157.000000   C1.000000,151.645065 1.000000,146.290146 1.311897,140.351349   C9.435415,134.505737 16.954241,128.729675 25.116203,124.083366   C45.653412,112.392250 66.427444,101.111908 87.230888,89.897560   C92.214325,87.211166 94.258614,83.860138 94.129982,78.055855   C93.764671,61.570980 93.882652,45.070766 94.076118,28.579708   C94.211998,16.997074 100.747322,9.355329 111.310860,9.176581   C131.795868,8.829949 152.294144,8.864653 172.780365,9.174478   C182.123840,9.315785 188.606537,16.632671 189.007446,26.116125   C189.086777,27.992586 189.433273,29.857752 189.735550,32.389759   C191.996628,31.367483 193.521622,30.796541 194.934097,30.020708   C206.603836,23.610863 218.289810,17.228951 229.891602,10.697759   C235.350784,7.624532 240.635971,4.242238 246.000000,0.999997   C253.020950,1.000000 260.041901,1.000000 267.682617,1.299991   C278.114166,7.187097 287.874664,12.866762 297.748016,18.342886   C321.463684,31.496473 345.238037,44.544106 368.977997,57.653961   C396.357849,72.773849 423.916046,87.583916 451.038055,103.153374   C471.872772,115.113579 494.437561,124.212914 513.000000,140.000000   C513.000000,145.354935 513.000000,150.709854 512.670532,156.626160   C511.260529,158.403061 509.943329,159.480774 509.141357,160.858414   C505.960052,166.323303 502.708862,171.768219 499.918304,177.434631   C496.442200,184.493103 491.107666,188.314804 483.259338,189.258743   C481.710388,189.445053 479.891632,191.897537 479.225739,193.687515   C478.515228,195.597488 479.003143,197.960922 479.003052,200.126404   C478.999054,295.425323 478.947144,390.724304 479.074860,486.023071   C479.088287,496.045868 475.573303,503.755524 467.373199,509.453949   C466.061005,510.365784 465.115173,511.804718 464.000000,513.000000  M53.000000,294.500000   C53.000008,355.989227 52.999767,417.478485 53.000183,478.967712   C53.000290,494.798615 53.364346,495.154846 69.336975,494.996124   C76.520645,494.924713 76.979622,494.513000 76.987000,487.261688   C77.012428,462.265930 76.978279,437.270172 77.007401,412.274445   C77.026772,395.655273 80.395119,379.937195 89.033775,365.459381   C90.332733,363.282410 90.190079,359.851929 89.794876,357.135040   C88.817612,350.416473 86.518349,343.816437 86.168747,337.095032   C85.343109,321.221527 90.119865,306.531403 97.587326,292.682251   C99.255951,289.587646 100.015640,287.174957 96.747147,284.430817   C86.640259,275.945312 83.484924,263.586548 87.728363,250.519562   C91.184990,239.875443 101.669174,231.851532 113.820381,231.129623   C118.248306,230.866547 119.755287,229.216507 120.174736,224.848969   C122.413887,201.533646 132.881378,182.546402 151.827545,168.786011   C168.858353,156.416733 188.021881,152.198502 209.056686,154.944153   C242.904556,159.362259 272.436218,190.358841 273.949524,224.083679   C274.162201,228.823593 275.808777,230.865784 280.756439,231.127457   C289.458038,231.587646 296.934113,235.220596 302.130646,242.365723   C312.407410,256.496063 310.745483,272.749237 297.745941,284.516022   C294.840881,287.145569 294.877289,289.082764 296.657898,292.136658   C298.744049,295.714630 300.586182,299.490295 302.056061,303.361725   C306.337677,314.638611 309.602631,326.312317 308.461761,338.417419   C307.266235,351.102631 306.302155,349.965271 318.288879,349.985901   C347.117188,350.035583 375.946686,349.868561 404.773712,350.070435   C423.462128,350.201294 435.834686,362.846252 433.770447,379.304901   C432.859589,386.567230 431.603882,393.786530 430.488434,401.022888   C427.674561,419.278442 424.812103,437.526672 422.082642,455.794800   C421.747314,458.038940 420.364563,460.952362 423.991302,462.107483   C434.378448,465.415649 437.096802,473.377106 437.018951,483.197510   C436.919617,495.726868 436.243713,495.023865 449.096954,494.995239   C459.278595,494.972595 460.992676,493.268921 460.993500,483.032349   C461.001678,384.715729 460.954681,286.399048 461.110657,188.082687   C461.119690,182.381607 459.421509,178.897171 454.357025,176.158768   C430.780701,163.410919 407.350708,150.392029 383.888214,137.434158   C359.843994,124.155014 335.824127,110.831871 311.791199,97.532280   C295.331299,88.423538 278.858643,79.337883 262.412720,70.204056   C259.159821,68.397438 256.103210,67.749748 252.546204,69.743423   C238.895889,77.394379 225.126053,84.831734 211.431778,92.404785   C184.481461,107.308556 157.564651,122.272934 130.609787,137.168488   C107.004745,150.212891 83.418579,163.293381 59.701225,176.130981   C54.678265,178.849777 52.838978,182.272491 52.878971,188.018784   C53.123669,223.177765 53.000553,258.339325 53.000000,294.500000  M118.711517,361.169800   C102.233803,372.585602 95.461838,389.103149 95.121353,408.347198   C94.661751,434.323700 94.995209,460.314362 95.006058,486.298950   C95.009605,494.807343 95.192307,494.992279 103.693604,494.994110   C148.833511,495.003876 193.973419,494.999237 239.113327,494.996582   C240.445648,494.996490 241.778000,494.945435 243.110291,494.948242   C246.432632,494.955231 247.963272,493.254364 247.955811,489.989441   C247.947815,486.491821 247.953171,482.993256 248.022858,479.496490   C248.175705,471.826141 251.372391,465.912537 258.592438,462.890564   C262.196075,461.382294 263.254486,459.268555 262.664368,455.554016   C259.428192,435.184601 256.424591,414.778015 253.138184,394.416931   C250.915863,380.648376 247.911118,366.853241 260.241821,355.801514   C260.401978,355.657928 260.261810,355.179260 260.261810,354.567688   C259.500061,354.234192 258.647919,353.646637 257.723419,353.492157   C252.641632,352.642822 247.563065,351.700104 242.444214,351.162781   C232.975739,350.168976 232.303360,350.864441 231.971558,360.433136   C231.469055,374.924652 220.824051,388.978271 207.650177,392.542542   C191.546021,396.899567 176.178497,391.092255 167.720779,377.523956   C163.870560,371.347229 162.603561,364.595062 162.987930,357.448944   C163.219406,353.144958 161.537247,350.966248 156.934067,350.986023   C143.536789,351.043610 130.778412,353.357788 118.711517,361.169800  M21.568178,153.064362   C23.642086,156.863007 25.694820,160.673416 27.794752,164.457626   C31.146002,170.496811 31.238808,170.634293 37.154400,167.385361   C62.395985,153.522385 87.561623,139.521164 112.801018,125.654182   C158.321106,100.644630 203.897995,75.738319 249.380707,50.661125   C254.578903,47.795067 259.166931,47.633026 264.399231,50.535343   C295.260590,67.654015 326.234589,84.569374 357.134491,101.618805   C380.891113,114.726837 404.585114,127.948357 428.324677,141.087326   C444.782623,150.196198 461.299774,159.198593 477.720612,168.373581   C480.955078,170.180817 483.141663,170.136063 484.979797,166.582657   C487.502411,161.706070 490.204590,156.916595 492.989899,152.183990   C494.531464,149.564728 493.965454,148.061386 491.330353,146.627945   C483.288605,142.253387 475.382874,137.629562 467.369507,133.201797   C434.586060,115.087364 401.764160,97.042442 368.990875,78.909706   C333.887970,59.488041 298.842316,39.962738 263.719574,20.577072   C259.216888,18.091852 254.421234,18.274494 249.858368,20.796446   C216.932098,38.995205 184.025940,57.230408 151.090622,75.412781   C108.536537,98.905327 65.979179,122.392189 23.359507,145.765305   C20.104885,147.550171 19.326015,149.387314 21.568178,153.064362  M256.999664,272.445374   C256.998810,266.612305 257.016998,260.779175 256.992371,254.946213   C256.961731,247.700943 256.706543,247.449875 249.837357,246.045319   C232.136139,242.425919 214.806198,237.878738 199.768326,227.099152   C198.539261,226.218124 195.700989,226.596634 194.105042,227.387726   C188.007660,230.410095 182.406433,234.658203 176.075409,236.933426   C165.774109,240.635452 155.112091,243.420013 144.465805,246.036377   C139.744522,247.196640 137.713394,249.117493 137.914978,254.126007   C138.249802,262.445435 138.108871,270.789917 137.978409,279.120880   C137.685745,297.808777 144.005768,313.655182 157.868149,326.370941   C184.074478,350.409668 222.193832,344.826477 242.862244,320.208221   C254.259598,306.632782 256.825104,290.391174 256.999664,272.445374  M402.918091,458.332916   C403.205780,457.378326 403.613983,456.442200 403.763550,455.466431   C407.543945,430.805450 411.322845,406.144135 415.042053,381.473846   C416.453674,372.110535 413.430389,368.141052 404.013489,368.107666   C362.707947,367.961334 321.401398,367.978119 280.095673,368.095093   C271.583374,368.119171 268.198944,372.723755 269.517181,381.112640   C273.364441,405.595398 277.267395,430.071136 280.811310,454.598328   C281.521301,459.511963 283.597260,461.050903 288.247498,461.038788   C324.390228,460.944763 360.533417,461.016205 396.676056,460.904022   C398.640717,460.897919 400.601715,459.706909 402.918091,458.332916  M148.989792,197.519501   C143.652405,205.153183 140.146790,213.514786 138.916473,222.788101   C138.210175,228.111588 138.870865,228.997742 143.912491,227.684982   C152.280899,225.505936 160.775452,223.498672 168.780563,220.320190   C177.790375,216.742798 187.162598,213.193420 189.667267,201.575653   C190.141922,199.374054 194.886230,197.053619 197.886856,196.697983   C201.671173,196.249435 205.086411,198.970901 205.758255,203.010757   C206.951447,210.185684 211.703644,214.365204 217.687637,216.656235   C228.533676,220.808823 239.666489,224.252625 250.797379,227.600662   C255.073441,228.886856 256.298645,227.366196 255.706284,222.967712   C252.599731,199.900879 234.591675,179.706940 212.062698,174.026520   C188.367035,168.051895 163.553772,177.125366 148.989792,197.519501  M333.500000,479.000000   C313.339996,479.002686 293.179596,478.946930 273.020660,479.094513   C270.904846,479.110016 267.189789,479.996033 266.975403,481.043030   C266.198914,484.835236 265.926239,489.049133 266.911316,492.714813   C267.267303,494.039734 271.699463,494.893494 274.275726,494.903534   C310.096680,495.043427 345.918335,495.000519 381.739838,494.999207   C392.069733,494.998810 402.401001,495.073120 412.728241,494.904327   C414.553497,494.874512 417.774200,494.066742 417.933655,493.182434   C418.624969,489.349060 419.090393,485.190094 418.188202,481.504364   C417.859741,480.162384 413.501556,479.125641 410.973969,479.108398   C385.483582,478.934296 359.991577,479.000977 333.500000,479.000000  M114.597374,74.437859   C130.218872,65.878952 145.725403,57.099556 161.516235,48.865379   C168.200607,45.379787 172.376236,41.472778 171.158966,33.131054   C170.520569,28.756250 169.203873,26.931694 164.755814,26.968113   C149.260117,27.094988 133.762115,27.094091 118.266411,26.968111   C113.836472,26.932096 111.915482,28.594584 111.968567,33.136391   C112.112671,45.465412 111.946915,57.798096 112.098671,70.126930   C112.116989,71.614624 113.331657,73.087585 114.597374,74.437859  M260.520691,326.962524   C258.994873,329.169647 257.469055,331.376740 256.020996,333.471344   C264.408051,336.464783 272.320251,338.602417 279.607788,342.057587   C289.468201,346.732605 290.459930,346.444794 290.687531,335.250977   C290.700989,334.590851 290.578278,333.928040 290.520538,333.266357   C289.340698,319.749329 285.017944,307.289185 277.863251,295.795166   C277.226654,294.772461 276.334076,293.909088 275.928619,293.417877   C270.865540,304.580322 265.916595,315.491150 260.520691,326.962524  M107.761230,315.300537   C104.915436,324.240173 102.781990,333.229797 104.872421,342.719635   C105.583481,345.947601 106.802727,346.209534 109.741920,344.926361   C117.478737,341.548737 125.386436,338.560242 133.248672,335.474396   C134.717789,334.897766 136.292007,334.588867 138.939941,333.838348   C129.104706,321.408875 122.822166,308.091187 120.278450,291.654388   C113.601357,299.210938 110.670601,306.807007 107.761230,315.300537  M200.711975,375.502472   C207.190994,373.479980 211.618835,369.510376 213.286423,362.694824   C214.030563,359.653534 212.899017,358.862793 210.041931,358.902222   C201.790726,359.016083 193.533707,359.092255 185.285812,358.895905   C181.355392,358.802307 180.709137,360.527527 181.522781,363.809082   C183.428238,371.493958 190.668472,376.196960 200.711975,375.502472  M104.324852,259.121460   C103.867302,267.022400 107.636963,271.783569 115.112061,273.245636   C118.456161,273.899719 119.879570,272.686920 119.914246,269.522766   C119.972420,264.214355 119.982262,258.904175 119.912598,253.596039   C119.857582,249.404327 117.237427,248.556030 113.806007,249.454956   C109.125420,250.681152 106.067558,253.771912 104.324852,259.121460  M289.350006,256.304382   C286.431519,254.031723 283.758667,251.274704 280.520386,249.632675   C277.698151,248.201614 275.203186,249.639343 275.123322,253.229263   C275.001312,258.713654 275.028015,264.203339 275.100037,269.689331   C275.143555,273.003937 276.868805,273.874268 280.066193,273.202637   C287.791321,271.579956 291.499695,265.468750 289.350006,256.304382  z"
   id="path1" />

















<path
   fill="#012B28"
   opacity="1.000000"
   stroke="none"
   d=" M337.734833,393.390442   C348.399139,392.467194 357.361176,394.863983 363.479889,403.830750   C369.580383,412.770905 369.876831,422.329590 365.003876,431.715027   C359.770599,441.794495 350.802795,445.928192 339.695251,444.874908   C329.615845,443.919098 322.350128,438.514648 318.300446,429.196869   C311.894989,414.458893 320.562469,396.700287 337.734833,393.390442  M339.465210,426.327118   C345.240387,427.221649 348.867432,425.154968 349.722351,420.482574   C350.536041,416.035767 347.758118,412.047424 343.253296,411.440460   C339.422516,410.924255 336.866760,412.936493 335.273895,416.180511   C333.117126,420.573029 335.576508,423.433441 339.465210,426.327118  z"
   id="path19" />

</svg>
